<svg width="25" height="25" viewBox="0 0 25 25" fill="none" xmlns="http://www.w3.org/2000/svg">
<mask id="mask0_309_27077" style="mask-type:alpha" maskUnits="userSpaceOnUse" x="0" y="0" width="25" height="25">
<rect x="0.69873" y="0.134766" width="24" height="24" fill="#D9D9D9"/>
</mask>
<g mask="url(#mask0_309_27077)">
<path d="M6.69873 20.1348C6.14873 20.1348 5.67806 19.9391 5.28673 19.5478C4.89473 19.1558 4.69873 18.6848 4.69873 18.1348V15.1348H6.69873V18.1348H18.6987V15.1348H20.6987V18.1348C20.6987 18.6848 20.5031 19.1558 20.1117 19.5478C19.7197 19.9391 19.2487 20.1348 18.6987 20.1348H6.69873ZM12.6987 16.1348L7.69873 11.1348L9.09873 9.68477L11.6987 12.2848V4.13477H13.6987V12.2848L16.2987 9.68477L17.6987 11.1348L12.6987 16.1348Z" fill="white"/>
</g>
</svg>
