<svg width="25" height="25" viewBox="0 0 25 25" fill="none" xmlns="http://www.w3.org/2000/svg">
<mask id="mask0_313_27269" style="mask-type:alpha" maskUnits="userSpaceOnUse" x="0" y="0" width="25" height="25">
<rect x="0.480957" y="0.414551" width="24" height="24" fill="#D9D9D9"/>
</mask>
<g mask="url(#mask0_313_27269)">
<path d="M12.481 13.4146L4.48096 8.41455V18.4146H13.481V20.4146H4.48096C3.93096 20.4146 3.46029 20.2189 3.06896 19.8276C2.67696 19.4356 2.48096 18.9646 2.48096 18.4146V6.41455C2.48096 5.86455 2.67696 5.39388 3.06896 5.00255C3.46029 4.61055 3.93096 4.41455 4.48096 4.41455H20.481C21.031 4.41455 21.502 4.61055 21.894 5.00255C22.2853 5.39388 22.481 5.86455 22.481 6.41455V13.4146H20.481V8.41455L12.481 13.4146ZM12.481 11.4146L20.481 6.41455H4.48096L12.481 11.4146ZM19.481 23.4146L18.081 22.0146L19.656 20.4146H15.481V18.4146H19.656L18.056 16.8146L19.481 15.4146L23.481 19.4146L19.481 23.4146ZM4.48096 8.41455V19.4146V13.4146V13.4896V6.41455V8.41455Z" fill="white"/>
</g>
</svg>
