<svg width="25" height="25" viewBox="0 0 25 25" fill="none" xmlns="http://www.w3.org/2000/svg">
<mask id="mask0_312_27257" style="mask-type:alpha" maskUnits="userSpaceOnUse" x="0" y="0" width="25" height="25">
<rect x="0.480957" y="0.414551" width="24" height="24" fill="#D9D9D9"/>
</mask>
<g mask="url(#mask0_312_27257)">
<path d="M18.481 22.4146C17.6476 22.4146 16.9393 22.1229 16.356 21.5396C15.7726 20.9562 15.481 20.2479 15.481 19.4146C15.481 19.2979 15.4893 19.1769 15.506 19.0515C15.5226 18.9269 15.5476 18.8146 15.581 18.7146L8.53096 14.6146C8.24762 14.8646 7.93096 15.0602 7.58096 15.2016C7.23096 15.3436 6.86429 15.4146 6.48096 15.4146C5.64762 15.4146 4.93929 15.1229 4.35596 14.5396C3.77262 13.9562 3.48096 13.2479 3.48096 12.4146C3.48096 11.5812 3.77262 10.8729 4.35596 10.2896C4.93929 9.70622 5.64762 9.41455 6.48096 9.41455C6.86429 9.41455 7.23096 9.48522 7.58096 9.62655C7.93096 9.76855 8.24762 9.96455 8.53096 10.2146L15.581 6.11455C15.5476 6.01455 15.5226 5.90222 15.506 5.77755C15.4893 5.65222 15.481 5.53122 15.481 5.41455C15.481 4.58122 15.7726 3.87288 16.356 3.28955C16.9393 2.70622 17.6476 2.41455 18.481 2.41455C19.3143 2.41455 20.0226 2.70622 20.606 3.28955C21.1893 3.87288 21.481 4.58122 21.481 5.41455C21.481 6.24788 21.1893 6.95622 20.606 7.53955C20.0226 8.12288 19.3143 8.41455 18.481 8.41455C18.0976 8.41455 17.731 8.34355 17.381 8.20155C17.031 8.06022 16.7143 7.86455 16.431 7.61455L9.38096 11.7146C9.41429 11.8146 9.43929 11.9269 9.45596 12.0516C9.47262 12.1769 9.48096 12.2979 9.48096 12.4146C9.48096 12.5312 9.47262 12.6519 9.45596 12.7766C9.43929 12.9019 9.41429 13.0146 9.38096 13.1146L16.431 17.2146C16.7143 16.9646 17.031 16.7686 17.381 16.6266C17.731 16.4852 18.0976 16.4146 18.481 16.4146C19.3143 16.4146 20.0226 16.7062 20.606 17.2896C21.1893 17.8729 21.481 18.5812 21.481 19.4146C21.481 20.2479 21.1893 20.9562 20.606 21.5396C20.0226 22.1229 19.3143 22.4146 18.481 22.4146ZM18.481 6.41455C18.7643 6.41455 19.0016 6.31888 19.193 6.12755C19.385 5.93555 19.481 5.69788 19.481 5.41455C19.481 5.13122 19.385 4.89355 19.193 4.70155C19.0016 4.51022 18.7643 4.41455 18.481 4.41455C18.1976 4.41455 17.9603 4.51022 17.769 4.70155C17.577 4.89355 17.481 5.13122 17.481 5.41455C17.481 5.69788 17.577 5.93555 17.769 6.12755C17.9603 6.31888 18.1976 6.41455 18.481 6.41455ZM6.48096 13.4146C6.76429 13.4146 7.00196 13.3186 7.19396 13.1266C7.38529 12.9352 7.48096 12.6979 7.48096 12.4146C7.48096 12.1312 7.38529 11.8936 7.19396 11.7016C7.00196 11.5102 6.76429 11.4146 6.48096 11.4146C6.19762 11.4146 5.95996 11.5102 5.76796 11.7016C5.57662 11.8936 5.48096 12.1312 5.48096 12.4146C5.48096 12.6979 5.57662 12.9352 5.76796 13.1266C5.95996 13.3186 6.19762 13.4146 6.48096 13.4146ZM18.481 20.4146C18.7643 20.4146 19.0016 20.3186 19.193 20.1266C19.385 19.9352 19.481 19.6979 19.481 19.4146C19.481 19.1312 19.385 18.8939 19.193 18.7026C19.0016 18.5106 18.7643 18.4146 18.481 18.4146C18.1976 18.4146 17.9603 18.5106 17.769 18.7026C17.577 18.8939 17.481 19.1312 17.481 19.4146C17.481 19.6979 17.577 19.9352 17.769 20.1266C17.9603 20.3186 18.1976 20.4146 18.481 20.4146Z" fill="white"/>
</g>
</svg>
