<svg width="97" height="99" viewBox="0 0 97 99" fill="none" xmlns="http://www.w3.org/2000/svg">
<g clip-path="url(#clip0_83_191)">
<path d="M88.78 37.48C90.27 41.78 91.07 46.38 91.07 51.17C91.07 74.66 71.76 93.75 48.0201 93.75C24.2801 93.75 4.97005 74.66 4.97005 51.17C4.97005 46.38 5.77005 41.76 7.26005 37.46L6.38005 27.51L6.29005 26.59L5.67005 19.68L4.91005 11.22C4.70005 8.96996 7.96005 7.16996 10.24 8.27996L14.68 10.4L18.46 12.22L19.6901 12.81L24.8701 15.29C31.5501 11.05 39.5 8.58996 48.0201 8.58996C56.5401 8.58996 64.49 11.05 71.18 15.29L76.37 12.81L77.59 12.21L81.36 10.4L85.8 8.27996C88.1 7.16996 91.35 8.96996 91.14 11.22L90.38 19.69L89.76 26.59L89.67 27.51L88.78 37.48V37.48Z" fill="#8648ED"/>
<path d="M63.9998 51C63.9998 52.55 62.7598 53.8 61.2198 53.8H50.8298V64.1501C50.8298 65.6901 49.5798 66.95 48.0498 66.95C46.5198 66.95 45.2698 65.6901 45.2698 64.1501V53.8H34.8698C33.3298 53.8 32.0898 52.55 32.0898 51C32.0898 49.45 33.3298 48.2001 34.8698 48.2001H45.2698V37.85C45.2698 36.3 46.5098 35.05 48.0498 35.05C49.5898 35.05 50.8298 36.3 50.8298 37.85V48.2001H61.2198C62.7598 48.2001 63.9998 49.46 63.9998 51V51Z" fill="white"/>
<path d="M93.03 34.4001L95.79 3.63007C96.01 1.13007 92.42 -0.849931 89.88 0.370069L71.12 9.37007C64.27 5.64007 56.41 3.52007 48.05 3.52007C39.69 3.52007 31.84 5.64007 24.99 9.37007L6.22 0.370069C3.69 -0.849931 0.09 1.13007 0.32 3.63007L3.08 34.3801C1.09 39.6001 0 45.2401 0 51.1401C0 77.4001 21.56 98.7601 48.05 98.7601C74.54 98.7601 96.1 77.4001 96.1 51.1401C96.1 45.2501 95.02 39.6101 93.03 34.4001V34.4001ZM87.1 51.1401C87.1 72.4401 69.58 89.7601 48.05 89.7601C26.52 89.7601 9 72.4401 9 51.1401C9 46.7901 9.73 42.6001 11.08 38.7001L10.28 29.6801L10.2 28.8401L9.64 22.5701L8.95 14.9001C8.76 12.8601 11.71 11.2301 13.78 12.2301L17.81 14.1601L21.24 15.8101L22.35 16.3401L27.05 18.5901C33.11 14.7501 40.32 12.5201 48.05 12.5201C55.78 12.5201 62.99 14.7501 69.06 18.5901L73.76 16.3401L74.87 15.8001L78.29 14.1601L82.32 12.2301C84.4 11.2301 87.35 12.8601 87.16 14.9001L86.47 22.5801L85.91 28.8401L85.83 29.6801L85.02 38.7201C86.37 42.6201 87.1 46.7901 87.1 51.1401V51.1401Z" fill="#2C2F32"/>
</g>
<defs>
<clipPath id="clip0_83_191">
<rect width="96.1" height="98.76" fill="white"/>
</clipPath>
</defs>
</svg>
