<svg width="102" height="53" viewBox="0 0 102 53" fill="none" xmlns="http://www.w3.org/2000/svg">
<g clip-path="url(#clip0_112_744)">
<path d="M62.1865 3.43066H39.8134C37.1597 3.43066 35 5.55414 35 8.16336V22.2673C35 24.8791 37.1597 27 39.8134 27H62.1865C64.8403 27 67 24.8791 67 22.2673V8.16336C67 5.55414 64.8403 3.43066 62.1865 3.43066V3.43066ZM58.312 15.2153C58.312 19.18 55.0323 22.4047 51 22.4047C46.9677 22.4047 43.6906 19.18 43.6906 15.2153C43.6906 11.2507 46.9703 8.02857 51 8.02857C55.0297 8.02857 58.312 11.2532 58.312 15.2153V15.2153Z" fill="white" fill-opacity="0.5"/>
<path d="M46.0186 15.2154C46.0186 17.9187 48.2533 20.1159 51.0001 20.1159C53.747 20.1159 55.9843 17.9187 55.9843 15.2154C55.9843 12.5121 53.747 10.3174 51.0001 10.3174C48.2533 10.3174 46.0186 12.5146 46.0186 15.2154V15.2154Z" fill="white" fill-opacity="0.5"/>
<path d="M41.2459 2.28878H47.9087C48.5528 2.28878 49.0727 1.77762 49.0727 1.14439C49.0727 0.511161 48.5528 0 47.9087 0H41.2459C40.6019 0 40.082 0.511161 40.082 1.14439C40.082 1.77762 40.6019 2.28878 41.2459 2.28878Z" fill="white" fill-opacity="0.5"/>
</g>
<path d="M1.26 48.12C1.02 48.12 0.825 48.065 0.675 47.955C0.535 47.845 0.45 47.7 0.42 47.52C0.39 47.33 0.425 47.12 0.525 46.89L4.485 38.115C4.615 37.825 4.77 37.62 4.95 37.5C5.14 37.37 5.355 37.305 5.595 37.305C5.825 37.305 6.03 37.37 6.21 37.5C6.4 37.62 6.56 37.825 6.69 38.115L10.665 46.89C10.775 47.12 10.815 47.33 10.785 47.52C10.755 47.71 10.67 47.86 10.53 47.97C10.39 48.07 10.205 48.12 9.975 48.12C9.695 48.12 9.475 48.055 9.315 47.925C9.165 47.785 9.03 47.575 8.91 47.295L7.935 45.03L8.745 45.555H2.415L3.225 45.03L2.265 47.295C2.135 47.585 2 47.795 1.86 47.925C1.72 48.055 1.52 48.12 1.26 48.12ZM5.565 39.51L3.465 44.505L3.075 44.025H8.085L7.71 44.505L5.595 39.51H5.565ZM13.3371 48C13.0071 48 12.7521 47.915 12.5721 47.745C12.4021 47.565 12.3171 47.31 12.3171 46.98V38.445C12.3171 38.115 12.4021 37.865 12.5721 37.695C12.7521 37.515 13.0071 37.425 13.3371 37.425H16.2471C18.0171 37.425 19.3821 37.88 20.3421 38.79C21.3121 39.7 21.7971 41.005 21.7971 42.705C21.7971 43.555 21.6721 44.31 21.4221 44.97C21.1821 45.62 20.8221 46.17 20.3421 46.62C19.8721 47.07 19.2921 47.415 18.6021 47.655C17.9221 47.885 17.1371 48 16.2471 48H13.3371ZM14.2371 46.41H16.1271C16.7471 46.41 17.2821 46.335 17.7321 46.185C18.1921 46.025 18.5721 45.795 18.8721 45.495C19.1821 45.185 19.4121 44.8 19.5621 44.34C19.7121 43.87 19.7871 43.325 19.7871 42.705C19.7871 41.465 19.4821 40.54 18.8721 39.93C18.2621 39.32 17.3471 39.015 16.1271 39.015H14.2371V46.41ZM24.7629 48C24.4329 48 24.1779 47.915 23.9979 47.745C23.8279 47.565 23.7429 47.31 23.7429 46.98V38.445C23.7429 38.115 23.8279 37.865 23.9979 37.695C24.1779 37.515 24.4329 37.425 24.7629 37.425H27.6729C29.4429 37.425 30.8079 37.88 31.7679 38.79C32.7379 39.7 33.2229 41.005 33.2229 42.705C33.2229 43.555 33.0979 44.31 32.8479 44.97C32.6079 45.62 32.2479 46.17 31.7679 46.62C31.2979 47.07 30.7179 47.415 30.0279 47.655C29.3479 47.885 28.5629 48 27.6729 48H24.7629ZM25.6629 46.41H27.5529C28.1729 46.41 28.7079 46.335 29.1579 46.185C29.6179 46.025 29.9979 45.795 30.2979 45.495C30.6079 45.185 30.8379 44.8 30.9879 44.34C31.1379 43.87 31.2129 43.325 31.2129 42.705C31.2129 41.465 30.9079 40.54 30.2979 39.93C29.6879 39.32 28.7729 39.015 27.5529 39.015H25.6629V46.41ZM40.2009 48.12C39.8909 48.12 39.6509 48.035 39.4809 47.865C39.3209 47.685 39.2409 47.44 39.2409 47.13V38.4C39.2409 38.08 39.3259 37.84 39.4959 37.68C39.6659 37.51 39.9059 37.425 40.2159 37.425H43.8309C44.9909 37.425 45.8859 37.715 46.5159 38.295C47.1459 38.875 47.4609 39.685 47.4609 40.725C47.4609 41.765 47.1459 42.58 46.5159 43.17C45.8859 43.75 44.9909 44.04 43.8309 44.04H41.1609V47.13C41.1609 47.44 41.0809 47.685 40.9209 47.865C40.7609 48.035 40.5209 48.12 40.2009 48.12ZM41.1609 42.525H43.5309C44.2109 42.525 44.7259 42.375 45.0759 42.075C45.4259 41.765 45.6009 41.315 45.6009 40.725C45.6009 40.135 45.4259 39.69 45.0759 39.39C44.7259 39.09 44.2109 38.94 43.5309 38.94H41.1609V42.525ZM49.9861 48.12C49.6761 48.12 49.4361 48.035 49.2661 47.865C49.1061 47.685 49.0261 47.44 49.0261 47.13V38.295C49.0261 37.975 49.1061 37.73 49.2661 37.56C49.4361 37.39 49.6761 37.305 49.9861 37.305C50.2961 37.305 50.5311 37.39 50.6911 37.56C50.8611 37.73 50.9461 37.975 50.9461 38.295V47.13C50.9461 47.44 50.8661 47.685 50.7061 47.865C50.5461 48.035 50.3061 48.12 49.9861 48.12ZM58.1795 48.15C57.0795 48.15 56.1345 47.93 55.3445 47.49C54.5645 47.04 53.9645 46.41 53.5445 45.6C53.1245 44.78 52.9145 43.815 52.9145 42.705C52.9145 41.875 53.0345 41.13 53.2745 40.47C53.5145 39.8 53.8595 39.23 54.3095 38.76C54.7595 38.28 55.3095 37.915 55.9595 37.665C56.6195 37.405 57.3595 37.275 58.1795 37.275C58.7295 37.275 59.2695 37.345 59.7995 37.485C60.3295 37.625 60.7945 37.825 61.1945 38.085C61.4045 38.215 61.5445 38.375 61.6145 38.565C61.6845 38.745 61.6995 38.925 61.6595 39.105C61.6195 39.275 61.5345 39.42 61.4045 39.54C61.2845 39.66 61.1295 39.73 60.9395 39.75C60.7595 39.76 60.5595 39.695 60.3395 39.555C60.0295 39.355 59.6945 39.21 59.3345 39.12C58.9745 39.03 58.6095 38.985 58.2395 38.985C57.5295 38.985 56.9295 39.13 56.4395 39.42C55.9495 39.71 55.5795 40.13 55.3295 40.68C55.0795 41.23 54.9545 41.905 54.9545 42.705C54.9545 43.495 55.0795 44.17 55.3295 44.73C55.5795 45.29 55.9495 45.715 56.4395 46.005C56.9295 46.295 57.5295 46.44 58.2395 46.44C58.6195 46.44 58.9945 46.395 59.3645 46.305C59.7345 46.205 60.0845 46.055 60.4145 45.855C60.6345 45.725 60.8295 45.67 60.9995 45.69C61.1795 45.7 61.3295 45.76 61.4495 45.87C61.5695 45.98 61.6495 46.12 61.6895 46.29C61.7295 46.45 61.7195 46.62 61.6595 46.8C61.5995 46.97 61.4795 47.12 61.2995 47.25C60.8995 47.54 60.4195 47.765 59.8595 47.925C59.3095 48.075 58.7495 48.15 58.1795 48.15ZM66.8183 48.12C66.5083 48.12 66.2683 48.035 66.0983 47.865C65.9383 47.685 65.8583 47.44 65.8583 47.13V39.03H62.9333C62.6733 39.03 62.4683 38.96 62.3183 38.82C62.1783 38.67 62.1083 38.47 62.1083 38.22C62.1083 37.96 62.1783 37.765 62.3183 37.635C62.4683 37.495 62.6733 37.425 62.9333 37.425H70.7033C70.9633 37.425 71.1633 37.495 71.3033 37.635C71.4533 37.765 71.5283 37.96 71.5283 38.22C71.5283 38.47 71.4533 38.67 71.3033 38.82C71.1633 38.96 70.9633 39.03 70.7033 39.03H67.7783V47.13C67.7783 47.44 67.6983 47.685 67.5383 47.865C67.3783 48.035 67.1383 48.12 66.8183 48.12ZM77.0197 48.15C76.2897 48.15 75.6447 48.055 75.0847 47.865C74.5347 47.675 74.0697 47.395 73.6897 47.025C73.3097 46.645 73.0247 46.175 72.8347 45.615C72.6447 45.055 72.5497 44.405 72.5497 43.665V38.28C72.5497 37.95 72.6297 37.705 72.7897 37.545C72.9597 37.385 73.1997 37.305 73.5097 37.305C73.8197 37.305 74.0547 37.385 74.2147 37.545C74.3847 37.705 74.4697 37.95 74.4697 38.28V43.65C74.4697 44.6 74.6847 45.315 75.1147 45.795C75.5547 46.265 76.1897 46.5 77.0197 46.5C77.8497 46.5 78.4797 46.265 78.9097 45.795C79.3397 45.315 79.5547 44.6 79.5547 43.65V38.28C79.5547 37.95 79.6347 37.705 79.7947 37.545C79.9647 37.385 80.2047 37.305 80.5147 37.305C80.8147 37.305 81.0447 37.385 81.2047 37.545C81.3747 37.705 81.4597 37.95 81.4597 38.28V43.665C81.4597 44.645 81.2897 45.47 80.9497 46.14C80.6197 46.81 80.1247 47.315 79.4647 47.655C78.8047 47.985 77.9897 48.15 77.0197 48.15ZM84.6589 48.12C84.3489 48.12 84.1089 48.035 83.9389 47.865C83.7789 47.685 83.6989 47.44 83.6989 47.13V38.4C83.6989 38.08 83.7839 37.84 83.9539 37.68C84.1239 37.51 84.3639 37.425 84.6739 37.425H88.2889C89.4489 37.425 90.3439 37.705 90.9739 38.265C91.6039 38.815 91.9189 39.59 91.9189 40.59C91.9189 41.24 91.7739 41.8 91.4839 42.27C91.2039 42.74 90.7939 43.1 90.2539 43.35C89.7139 43.6 89.0589 43.725 88.2889 43.725L88.4239 43.5H88.9189C89.3289 43.5 89.6839 43.6 89.9839 43.8C90.2939 44 90.5639 44.315 90.7939 44.745L91.9189 46.83C92.0389 47.04 92.0939 47.245 92.0839 47.445C92.0739 47.645 91.9989 47.81 91.8589 47.94C91.7189 48.06 91.5139 48.12 91.2439 48.12C90.9739 48.12 90.7539 48.065 90.5839 47.955C90.4139 47.835 90.2639 47.655 90.1339 47.415L88.6189 44.625C88.4389 44.285 88.2239 44.06 87.9739 43.95C87.7339 43.83 87.4239 43.77 87.0439 43.77H85.6189V47.13C85.6189 47.44 85.5389 47.685 85.3789 47.865C85.2189 48.035 84.9789 48.12 84.6589 48.12ZM85.6189 42.345H87.9589C88.6489 42.345 89.1689 42.205 89.5189 41.925C89.8789 41.635 90.0589 41.205 90.0589 40.635C90.0589 40.075 89.8789 39.655 89.5189 39.375C89.1689 39.085 88.6489 38.94 87.9589 38.94H85.6189V42.345ZM95.0021 48C94.6721 48 94.4171 47.915 94.2371 47.745C94.0671 47.565 93.9821 47.31 93.9821 46.98V38.445C93.9821 38.115 94.0671 37.865 94.2371 37.695C94.4171 37.515 94.6721 37.425 95.0021 37.425H100.357C100.607 37.425 100.797 37.49 100.927 37.62C101.067 37.75 101.137 37.935 101.137 38.175C101.137 38.425 101.067 38.62 100.927 38.76C100.797 38.89 100.607 38.955 100.357 38.955H95.8271V41.865H100.027C100.287 41.865 100.482 41.93 100.612 42.06C100.742 42.19 100.807 42.38 100.807 42.63C100.807 42.88 100.742 43.07 100.612 43.2C100.482 43.33 100.287 43.395 100.027 43.395H95.8271V46.47H100.357C100.607 46.47 100.797 46.535 100.927 46.665C101.067 46.795 101.137 46.985 101.137 47.235C101.137 47.485 101.067 47.675 100.927 47.805C100.797 47.935 100.607 48 100.357 48H95.0021Z" fill="white" fill-opacity="0.5"/>
<defs>
<clipPath id="clip0_112_744">
<rect width="32" height="27" fill="white" transform="translate(35)"/>
</clipPath>
</defs>
</svg>
