<svg width="9" height="9" viewBox="0 0 9 9" fill="none" xmlns="http://www.w3.org/2000/svg">
<path d="M5.67043 7.20891L2.04639 4.30548L5.67043 1.40205C6.00975 1.13095 6.06397 0.634218 5.79286 0.294902C5.52176 -0.0444145 5.02678 -0.0986351 4.68571 0.172468L0.295589 3.68981C0.10844 3.83848 0 4.06586 0 4.30373C0 4.5416 0.10844 4.76898 0.295589 4.91765L4.68571 8.435C4.83088 8.55218 5.00404 8.60815 5.1772 8.60815C5.40807 8.60815 5.6372 8.50671 5.79112 8.31256C6.06222 7.97325 6.008 7.47827 5.66868 7.20541L5.67043 7.20891Z" fill="white"/>
<path d="M7.27327 3.51855H5.17965C4.74414 3.51855 4.39258 3.87011 4.39258 4.30563C4.39258 4.74114 4.74414 5.0927 5.17965 5.0927H7.27327C7.70878 5.0927 8.06034 4.74114 8.06034 4.30563C8.06034 3.87011 7.70878 3.51855 7.27327 3.51855Z" fill="white"/>
</svg>
