<svg width="5" height="5" viewBox="0 0 5 5" fill="none" xmlns="http://www.w3.org/2000/svg">
<path d="M0.520095 4.84052C0.377069 4.84052 0.254586 4.79472 0.152648 4.70314C0.0508826 4.61139 0 4.50116 0 4.37243V1.09584C0 0.967115 0.0508826 0.856959 0.152648 0.76537C0.254586 0.673625 0.377069 0.627753 0.520095 0.627753H0.780142V0.159668H1.30024V0.627753H3.38061V0.159668H3.90071V0.627753H4.16076C4.30378 0.627753 4.42626 0.673625 4.5282 0.76537C4.62997 0.856959 4.68085 0.967115 4.68085 1.09584V4.37243C4.68085 4.50116 4.62997 4.61139 4.5282 4.70314C4.42626 4.79472 4.30378 4.84052 4.16076 4.84052H0.520095ZM0.520095 4.37243H4.16076V2.03201H0.520095V4.37243ZM0.520095 1.56392H4.16076V1.09584H0.520095V1.56392Z" fill="#2C2F32"/>
</svg>
