<svg width="5" height="5" viewBox="0 0 5 5" fill="none" xmlns="http://www.w3.org/2000/svg">
<path d="M4.34141 3.00139L4.34097 3.00334C4.14294 3.87787 3.32633 4.54797 2.33861 4.54797C1.35143 4.54797 0.538033 3.87839 0.339885 3.00334L0.339891 3.00334L0.339437 3.00139C0.308418 2.86863 0.292553 2.72826 0.292553 2.58324C0.292553 2.33915 0.337021 2.10751 0.420536 1.89989L0.446923 1.83429L0.440438 1.76388L0.325034 0.510775L1.0914 0.867193L1.2231 0.928444L1.3515 0.860557C1.64431 0.705755 1.9793 0.61851 2.33861 0.61851C2.69792 0.61851 3.03291 0.705755 3.32571 0.860557L3.45387 0.928315L3.58542 0.86738L4.35584 0.510493L4.24041 1.76388L4.23411 1.83231L4.25893 1.89638C4.34114 2.10861 4.3883 2.34175 4.3883 2.58324C4.3883 2.72827 4.37243 2.86863 4.34141 3.00139Z" stroke="#2C2F32" stroke-width="0.585106"/>
</svg>
