<svg width="32" height="27" viewBox="0 0 32 27" fill="none" xmlns="http://www.w3.org/2000/svg">
<g clip-path="url(#clip0_121_196)">
<path d="M27.1865 3.43066H4.81345C2.15972 3.43066 0 5.55414 0 8.16336V22.2673C0 24.8791 2.15972 27 4.81345 27H27.1865C29.8403 27 32 24.8791 32 22.2673V8.16336C32 5.55414 29.8403 3.43066 27.1865 3.43066V3.43066ZM23.312 15.2153C23.312 19.18 20.0323 22.4047 16 22.4047C11.9677 22.4047 8.69059 19.18 8.69059 15.2153C8.69059 11.2507 11.9703 8.02857 16 8.02857C20.0297 8.02857 23.312 11.2532 23.312 15.2153V15.2153Z" fill="white"/>
<path d="M11.0186 15.2154C11.0186 17.9187 13.2533 20.1159 16.0001 20.1159C18.747 20.1159 20.9843 17.9187 20.9843 15.2154C20.9843 12.5121 18.747 10.3174 16.0001 10.3174C13.2533 10.3174 11.0186 12.5146 11.0186 15.2154V15.2154Z" fill="white"/>
<path d="M6.24595 2.28878H12.9087C13.5528 2.28878 14.0727 1.77762 14.0727 1.14439C14.0727 0.511161 13.5528 0 12.9087 0H6.24595C5.60191 0 5.08203 0.511161 5.08203 1.14439C5.08203 1.77762 5.60191 2.28878 6.24595 2.28878Z" fill="white"/>
</g>
<defs>
<clipPath id="clip0_121_196">
<rect width="32" height="27" fill="white"/>
</clipPath>
</defs>
</svg>
