<svg width="13" height="14" viewBox="0 0 13 14" fill="none" xmlns="http://www.w3.org/2000/svg">
<g clip-path="url(#clip0_98_380)">
<path d="M6.49088 13.5C5.51138 13.5 4.51573 13.2778 3.58269 12.8072C2.03166 12.0275 0.878479 10.6904 0.333194 9.04214C-0.212091 7.39391 -0.0828383 5.63257 0.696717 4.08129C1.47627 2.53204 2.81323 1.37666 4.4612 0.831294C6.10918 0.285924 7.87025 0.417217 9.41926 1.19689C9.8676 1.42312 10.0473 1.96849 9.82317 2.41691C9.59698 2.86532 9.0517 3.04711 8.60335 2.82088C7.48653 2.25936 6.21823 2.16644 5.03072 2.5583C3.84321 2.95016 2.8819 3.78235 2.31844 4.89935C1.75699 6.01635 1.66409 7.28484 2.05589 8.47253C2.44769 9.66023 3.27975 10.6217 4.39658 11.1852C5.5134 11.7468 6.78169 11.8397 7.9692 11.4478C9.15671 11.056 10.118 10.2238 10.6815 9.10678C11.1076 8.26044 11.2651 7.31917 11.1399 6.38397C11.0733 5.88707 11.4227 5.42856 11.9195 5.3619C12.4143 5.29525 12.8748 5.64469 12.9414 6.14158C13.1171 7.44037 12.897 8.74724 12.3052 9.92281C11.1642 12.1891 8.86993 13.5 6.49088 13.5Z" fill="white"/>
<path d="M6.06895 9.95702C6.06895 9.95702 6.0528 9.95702 6.04472 9.95702C5.78823 9.95096 5.54589 9.83582 5.37826 9.63989L3.00324 6.86659C2.67607 6.48483 2.7205 5.91118 3.1022 5.58396C3.4839 5.25674 4.05746 5.30117 4.38463 5.68293L6.10531 7.6907L11.4329 2.09359C11.7783 1.73001 12.3539 1.71587 12.7174 2.06127C13.0809 2.40667 13.0951 2.98234 12.7497 3.34592L6.72734 9.67423C6.55567 9.854 6.31736 9.95702 6.06895 9.95702V9.95702Z" fill="white"/>
</g>
<defs>
<clipPath id="clip0_98_380">
<rect width="13" height="13" fill="white" transform="translate(0 0.5)"/>
</clipPath>
</defs>
</svg>
