<svg width="8" height="9" viewBox="0 0 8 9" fill="none" xmlns="http://www.w3.org/2000/svg">
<g clip-path="url(#clip0_93_679)">
<path d="M5.09939 4.8042L7.77182 2.13177C8.07606 1.82754 8.07606 1.33488 7.77182 1.03238C7.46759 0.72814 6.97493 0.72814 6.67243 1.03238L4 3.7048L1.32757 1.03238C1.02334 0.72814 0.532411 0.72814 0.228176 1.03238C-0.0760588 1.33488 -0.0760588 1.82754 0.228176 2.13177L2.90061 4.8042L0.228176 7.47663C-0.0760588 7.78086 -0.0760588 8.27352 0.228176 8.57602C0.380294 8.72814 0.579084 8.8042 0.777874 8.8042C0.976664 8.8042 1.17545 8.72814 1.32757 8.57602L4 5.90359L6.67243 8.57602C6.82455 8.72814 7.02334 8.8042 7.22213 8.8042C7.42092 8.8042 7.61971 8.72814 7.77182 8.57602C8.07606 8.27179 8.07606 7.77913 7.77182 7.47663L5.09939 4.8042Z" fill="white"/>
</g>
<defs>
<clipPath id="clip0_93_679">
<rect width="8" height="8" fill="white" transform="translate(0 0.804199)"/>
</clipPath>
</defs>
</svg>
