<svg width="30" height="29" viewBox="0 0 30 29" fill="none" xmlns="http://www.w3.org/2000/svg">
<g clip-path="url(#clip0_109_203)">
<path d="M25.2309 12.0526V24.0253C25.2309 25.5297 23.976 26.7547 22.4348 26.7547H5.09627C3.55512 26.7547 2.30022 25.5297 2.30022 24.0253V7.10032C2.30022 5.59593 3.55512 4.37096 5.09627 4.37096H17.4996L19.8995 2.12561H5.09627C2.28744 2.12561 0 4.356 0 7.10032V24.0253C0 26.7671 2.28744 29 5.09627 29H22.4348C25.2462 29 27.5311 26.7671 27.5311 24.0253V9.89953L25.2309 12.0526Z" fill="white"/>
<path d="M30.0004 3.20337C29.9825 4.04164 29.6324 4.82252 29.0113 5.40132L27.5213 6.79594L25.2313 8.93901L13.2931 20.1159C13.1551 20.2431 12.9916 20.3379 12.8101 20.3878L8.58024 21.5529C8.47801 21.5804 8.37322 21.5953 8.26843 21.5953C7.95918 21.5953 7.65759 21.4731 7.4378 21.2485C7.14388 20.9492 7.04165 20.5176 7.17455 20.1234L8.54446 16.0468C8.60324 15.8722 8.70547 15.715 8.84349 15.5877L20.8225 4.37096L23.1662 2.17799L24.5617 0.870699C25.1674 0.30437 25.9674 0 26.798 0H26.8542C27.713 0.0174639 28.5129 0.359257 29.1059 0.965502C29.7014 1.56925 30.0183 2.36511 30.0004 3.20337Z" fill="white"/>
</g>
<defs>
<clipPath id="clip0_109_203">
<rect width="30" height="29" fill="white"/>
</clipPath>
</defs>
</svg>
