<svg width="106" height="106" viewBox="0 0 106 106" fill="none" xmlns="http://www.w3.org/2000/svg">
<g clip-path="url(#clip0_106_198)">
<path d="M53.0038 102.15C80.1504 102.15 102.157 80.1429 102.157 52.9963C102.157 25.8497 80.1504 3.84302 53.0038 3.84302C25.8572 3.84302 3.85059 25.8497 3.85059 52.9963C3.85059 80.1429 25.8572 102.15 53.0038 102.15Z" fill="white"/>
<path d="M52.3433 71.713L35.0641 73.6272C34.9761 73.6345 34.8881 73.6418 34.8001 73.6418C34.1547 73.6418 33.5386 73.3851 33.0766 72.9231C32.5558 72.4024 32.2992 71.6763 32.3798 70.9429L34.2867 53.6564C34.4334 52.3216 35.6362 51.3608 36.971 51.5075C38.3058 51.6541 39.2739 52.8569 39.1272 54.1918L37.5504 68.4566L51.8152 66.8798C53.1501 66.7331 54.3528 67.6939 54.4995 69.0287C54.6462 70.3635 53.6781 71.5663 52.3433 71.713V71.713Z" fill="#2C2F32"/>
<path d="M73.6277 35.0644L71.7134 52.3435C71.5814 53.5903 70.5253 54.5144 69.3005 54.5144C69.2125 54.5144 69.1245 54.5144 69.0292 54.4998C67.6944 54.3531 66.7336 53.1503 66.8803 51.8155L68.4571 37.5506L54.1922 39.1275C52.8574 39.2741 51.6546 38.306 51.508 36.9712C51.3613 35.6364 52.322 34.4336 53.6569 34.2869L70.9434 32.3801C71.6768 32.2994 72.4029 32.5561 72.9236 33.0768C73.4516 33.6049 73.7083 34.331 73.6277 35.0644V35.0644Z" fill="#2C2F32"/>
<path d="M62.663 46.7844L46.7847 62.6628C46.3079 63.1395 45.6845 63.3742 45.0611 63.3742C44.4377 63.3742 43.8143 63.1395 43.345 62.6628C42.3915 61.7167 42.3915 60.1765 43.345 59.2231L59.2233 43.3447C60.1768 42.3913 61.7169 42.3913 62.663 43.3447C63.6165 44.2908 63.6165 45.831 62.663 46.7844Z" fill="#2C2F32"/>
<path d="M53.0037 0C23.7772 0 0 23.7772 0 53.0037C0 82.2301 23.7772 106 53.0037 106C82.2301 106 106 82.2301 106 53.0037C106 23.7772 82.2301 0 53.0037 0ZM53.0037 99.3993C27.4223 99.3993 6.60071 78.5851 6.60071 53.0037C6.60071 27.4223 27.4223 6.60071 53.0037 6.60071C78.5851 6.60071 99.3993 27.4223 99.3993 53.0037C99.3993 78.5851 78.5851 99.3993 53.0037 99.3993V99.3993Z" fill="#2C2F32"/>
</g>
<defs>
<clipPath id="clip0_106_198">
<rect width="106" height="106" fill="white"/>
</clipPath>
</defs>
</svg>
