<svg width="32" height="23" viewBox="0 0 32 23" fill="none" xmlns="http://www.w3.org/2000/svg">
<g clip-path="url(#clip0_82_282)">
<path d="M29.3398 5H11.7998C10.4198 5 9.2998 3.88 9.2998 2.5C9.2998 1.12 10.4198 0 11.7998 0H29.3398C30.7198 0 31.8398 1.12 31.8398 2.5C31.8398 3.88 30.7198 5 29.3398 5Z" fill="white"/>
<path d="M29.3398 22.76H11.7998C10.4198 22.76 9.2998 21.64 9.2998 20.26C9.2998 18.88 10.4198 17.76 11.7998 17.76H29.3398C30.7198 17.76 31.8398 18.88 31.8398 20.26C31.8398 21.64 30.7198 22.76 29.3398 22.76Z" fill="white"/>
<path d="M29.3398 13.8799H11.7998C10.4198 13.8799 9.2998 12.7599 9.2998 11.3799C9.2998 9.99988 10.4198 8.87988 11.7998 8.87988H29.3398C30.7198 8.87988 31.8398 9.99988 31.8398 11.3799C31.8398 12.7599 30.7198 13.8799 29.3398 13.8799Z" fill="white"/>
<path d="M2.66 5H2.5C1.12 5 0 3.88 0 2.5C0 1.12 1.12 0 2.5 0H2.66C4.04 0 5.16 1.12 5.16 2.5C5.16 3.88 4.04 5 2.66 5Z" fill="white"/>
<path d="M2.66 22.76H2.5C1.12 22.76 0 21.64 0 20.26C0 18.88 1.12 17.76 2.5 17.76H2.66C4.04 17.76 5.16 18.88 5.16 20.26C5.16 21.64 4.04 22.76 2.66 22.76Z" fill="white"/>
<path d="M2.66 13.8799H2.5C1.12 13.8799 0 12.7599 0 11.3799C0 9.99988 1.12 8.87988 2.5 8.87988H2.66C4.04 8.87988 5.16 9.99988 5.16 11.3799C5.16 12.7599 4.04 13.8799 2.66 13.8799Z" fill="white"/>
</g>
<defs>
<clipPath id="clip0_82_282">
<rect width="31.84" height="22.76" fill="white"/>
</clipPath>
</defs>
</svg>
