<svg width="27" height="40" viewBox="0 0 27 40" fill="none" xmlns="http://www.w3.org/2000/svg">
<path d="M25.7875 9.65674L26.5243 1.44268C26.583 0.775305 25.6247 0.246743 24.9466 0.572423L19.9386 2.97498C18.11 1.97925 16.0118 1.41332 13.7801 1.41332C11.5484 1.41332 9.45283 1.97925 7.62422 2.97498L2.61356 0.572423C1.93817 0.246743 0.977151 0.775305 1.03855 1.44268L1.77533 9.65141C1.2441 11.0449 0.953125 12.5505 0.953125 14.1255C0.953125 21.1356 6.70858 26.8377 13.7801 26.8377C20.8516 26.8377 26.6071 21.1356 26.6071 14.1255C26.6071 12.5532 26.3188 11.0476 25.7875 9.65674ZM24.2045 14.1255C24.2045 19.8115 19.5275 24.4351 13.7801 24.4351C8.03265 24.4351 3.35568 19.8115 3.35568 14.1255C3.35568 12.9643 3.55055 11.8457 3.91094 10.8046L3.69738 8.39674L3.67602 8.1725L3.52653 6.49872L3.34233 4.45121C3.29161 3.90663 4.07911 3.4715 4.6317 3.73845L5.70751 4.25367L6.62315 4.69414L6.91947 4.83562L8.17413 5.43626C9.79185 4.41117 11.7166 3.81587 13.7801 3.81587C15.8436 3.81587 17.7683 4.41117 19.3887 5.43626L20.6434 4.83562L20.9397 4.69147L21.8527 4.25367L22.9285 3.73845C23.4837 3.4715 24.2712 3.90663 24.2205 4.45121L24.0363 6.50139L23.8868 8.1725L23.8655 8.39674L23.6492 10.81C24.0096 11.8511 24.2045 12.9643 24.2045 14.1255Z" fill="#2C2F32"/>
<path d="M23.8653 8.39679L23.8867 8.17255L24.0362 6.50144L24.2204 4.45126C24.2711 3.90668 23.4836 3.47155 22.9283 3.7385L21.8525 4.25372L20.9395 4.69151L20.6432 4.83567L19.3886 5.43631C17.7682 4.41122 15.8435 3.81592 13.7799 3.81592C11.7164 3.81592 9.7917 4.41122 8.17398 5.43631L6.91931 4.83567L6.623 4.69418L5.70736 4.25372L4.63155 3.7385C4.07896 3.47155 3.29146 3.90668 3.34218 4.45126L3.52637 6.49877L3.67586 8.17255L3.69722 8.39679L3.91078 10.8047C3.5504 11.8458 3.35552 12.9643 3.35552 14.1255C3.35552 19.8116 8.03249 24.4352 13.7799 24.4352C19.5274 24.4352 24.2043 19.8116 24.2043 14.1255C24.2043 12.9643 24.0095 11.8511 23.6491 10.81L23.8653 8.39679ZM19.4793 15.3241H14.9812V19.7689C14.9812 20.4309 14.442 20.9701 13.7799 20.9701C13.1179 20.9701 12.5787 20.4309 12.5787 19.7689V15.3241H8.07788C7.41317 15.3241 6.8766 14.7876 6.8766 14.1229C6.8766 13.4582 7.41317 12.9216 8.07788 12.9216H12.5787V8.47954C12.5787 7.81483 13.1152 7.27826 13.7799 7.27826C14.4446 7.27826 14.9812 7.81483 14.9812 8.47954V12.9216H19.4793C20.144 12.9216 20.6806 13.4608 20.6806 14.1229C20.6806 14.7849 20.144 15.3241 19.4793 15.3241Z" fill="#8648ED"/>
<circle cx="13.766" cy="13.5541" r="7.74156" fill="#8648ED"/>
<line x1="13.4999" y1="26.9017" x2="13.4999" y2="37.5797" stroke="#2C2F32" stroke-width="4.27121" stroke-linecap="round"/>
</svg>
