<svg width="28" height="23" viewBox="0 0 28 23" fill="none" xmlns="http://www.w3.org/2000/svg">
<g clip-path="url(#clip0_82_289)">
<path d="M24.4955 22.76H3.07147C1.06266 22.76 -0.439073 20.8487 0.116762 18.9179C1.04315 15.6414 3.12998 12.8427 5.8994 10.9705C6.91356 14.3347 10.0633 16.8019 13.7786 16.8019C17.4939 16.8019 20.6437 14.3445 21.6578 10.9802C24.4272 12.8427 26.5141 15.6414 27.4502 18.9179C27.9963 20.8487 26.5043 22.76 24.4955 22.76Z" fill="white"/>
<path d="M20.059 6.67978C20.059 7.1381 20.0102 7.58667 19.9127 8.01573C19.2984 10.8047 16.7825 12.9012 13.779 12.9012C10.7755 12.9012 8.26941 10.8047 7.65506 8.01573C7.55755 7.58667 7.50879 7.1381 7.50879 6.67978C7.50879 5.90941 7.64531 5.16829 7.9086 4.49544L7.5478 0.468072C7.51854 0.214533 7.81109 0 8.09388 0C8.17189 0 8.2499 0.0097515 8.31816 0.0487575L10.7658 1.21894C11.6629 0.731362 12.6868 0.45832 13.779 0.45832C14.8712 0.45832 15.8951 0.731362 16.7922 1.21894L19.2496 0.0487575C19.3179 0.0097515 19.3861 0 19.4641 0C19.7469 0 20.0395 0.214533 20.02 0.468072L19.6592 4.49544C19.9127 5.16829 20.059 5.90941 20.059 6.67978Z" fill="white"/>
</g>
<defs>
<clipPath id="clip0_82_289">
<rect width="27.5675" height="22.76" fill="white"/>
</clipPath>
</defs>
</svg>
