<svg width="6" height="6" viewBox="0 0 6 6" fill="none" xmlns="http://www.w3.org/2000/svg">
<path d="M3.63012 1.50816C3.49542 1.09357 2.90888 1.09357 2.77417 1.50816L2.45923 2.47746H1.44004C1.00412 2.47746 0.822869 3.03528 1.17554 3.29152L2.00008 3.89058L1.68513 4.85988C1.55042 5.27447 2.02494 5.61922 2.37761 5.36299L3.20215 4.76393L4.02669 5.36299C4.37936 5.61922 4.85387 5.27447 4.71916 4.85988L4.40422 3.89058L5.22876 3.29152C5.58143 3.03529 5.40018 2.47746 4.96425 2.47746H3.94507L3.63012 1.50816ZM4.39299 3.85603C4.393 3.85605 4.39301 3.85608 4.39302 3.85611L4.39299 3.85603Z" stroke="#2C2F32" stroke-width="0.5"/>
</svg>
