<svg width="5" height="6" viewBox="0 0 5 6" fill="none" xmlns="http://www.w3.org/2000/svg">
<path d="M2.94946 1.50816C2.81475 1.09357 2.22822 1.09357 2.09351 1.50816L1.77856 2.47746H0.75938C0.323454 2.47746 0.142205 3.03528 0.494876 3.29152L1.31941 3.89058L1.00447 4.85988C0.86976 5.27447 1.34428 5.61922 1.69695 5.36299L2.52148 4.76393L3.34602 5.36299C3.69869 5.61922 4.17321 5.27447 4.0385 4.85988L3.72356 3.89058L4.54809 3.29152C4.90076 3.03529 4.71952 2.47746 4.28359 2.47746H3.26441L2.94946 1.50816ZM3.71233 3.85603C3.71234 3.85605 3.71235 3.85608 3.71236 3.85611L3.71233 3.85603Z" fill="#ffffff" stroke="#2C2F32" stroke-width="0.5"/>
</svg>
