<svg width="55" height="58" viewBox="0 0 55 58" fill="none" xmlns="http://www.w3.org/2000/svg">
<g clip-path="url(#clip0_148_207)">
<path d="M20.4743 43.5091C21.9333 43.5091 23.1175 42.3326 23.1175 40.883V22.7997C23.1175 21.3501 21.9333 20.1736 20.4743 20.1736C19.0152 20.1736 17.8311 21.3501 17.8311 22.7997V40.883C17.8311 42.3326 19.0152 43.5091 20.4743 43.5091Z" fill="#CF6767"/>
<path d="M34.526 43.5091C35.9851 43.5091 37.1692 42.3326 37.1692 40.883V22.7997C37.1692 21.3501 35.9851 20.1736 34.526 20.1736C33.067 20.1736 31.8828 21.3501 31.8828 22.7997V40.883C31.8828 42.3326 33.067 43.5091 34.526 43.5091Z" fill="#CF6767"/>
<path d="M52.3568 8.49292H2.64321C1.18416 8.49292 0 9.66941 0 11.119C0 12.5686 1.18416 13.7451 2.64321 13.7451H5.83093V47.3277C5.83093 53.2154 10.7156 58.0054 16.721 58.0054H38.279C44.2844 58.0054 49.1691 53.2154 49.1691 47.3277V13.7451H52.3568C53.8158 13.7451 55 12.5686 55 11.119C55 9.66941 53.8158 8.49292 52.3568 8.49292V8.49292ZM43.8826 47.3277C43.8826 50.3214 41.3716 52.7532 38.279 52.7532H16.721C13.6337 52.7532 11.1174 50.3214 11.1174 47.3277V13.7451H43.8774V47.3277H43.8826Z" fill="#CF6767"/>
<path d="M22.5729 5.2522H32.4268C33.8859 5.2522 35.07 4.0757 35.07 2.6261C35.07 1.17649 33.8859 0 32.4268 0H22.5729C21.1138 0 19.9297 1.17649 19.9297 2.6261C19.9297 4.0757 21.1138 5.2522 22.5729 5.2522Z" fill="#CF6767"/>
</g>
<defs>
<clipPath id="clip0_148_207">
<rect width="55" height="58" fill="white"/>
</clipPath>
</defs>
</svg>
