<svg width="24" height="11" viewBox="0 0 24 11" fill="none" xmlns="http://www.w3.org/2000/svg">
<path d="M3.90117 10.4562L11.9961 3.77352L20.091 10.4562C20.8469 11.0819 22.2318 11.1819 23.1778 10.682C24.1238 10.1821 24.275 9.26932 23.5191 8.6404L13.7126 0.545063C13.2981 0.199963 12.6642 8.68627e-08 12.001 9.19445e-08C11.3378 9.70264e-08 10.7038 0.199963 10.2893 0.545063L0.482771 8.6404C0.156048 8.90809 1.71241e-07 9.22739 1.77166e-07 9.54669C1.85067e-07 9.97242 0.282833 10.3949 0.82412 10.6787C1.77015 11.1787 3.15019 11.0787 3.91092 10.453L3.90117 10.4562Z" fill="black"/>
</svg>
