<svg width="26" height="23" viewBox="0 0 26 23" fill="none" xmlns="http://www.w3.org/2000/svg">
<g clip-path="url(#clip0_121_188)">
<path d="M18.3154 8.57867C18.0334 8.57867 17.7534 8.4544 17.5654 8.21658L13.0009 2.50675L8.43856 8.21658C8.10734 8.63223 7.50045 8.69865 7.08589 8.36656C6.67132 8.03447 6.60508 7.42599 6.9363 7.01034L12.2508 0.362087C12.4325 0.132837 12.7103 0 13.0009 0C13.2915 0 13.5693 0.132837 13.751 0.362087L19.0655 7.01248C19.3967 7.42813 19.3305 8.03447 18.9159 8.3687C18.7386 8.51011 18.527 8.58081 18.3154 8.58081V8.57867Z" fill="white"/>
<path d="M13.0007 17.2237C12.4686 17.2237 12.0391 16.7931 12.0391 16.2596V7.61453C12.0391 7.08104 12.4686 6.65039 13.0007 6.65039C13.5328 6.65039 13.9623 7.08104 13.9623 7.61453V16.2596C13.9623 16.7931 13.5328 17.2237 13.0007 17.2237Z" fill="white"/>
<path d="M24.5042 22.9999H1.49585C0.668858 22.9999 0 22.3293 0 21.5002V12.5144C0 11.6853 0.668858 11.0146 1.49585 11.0146C2.32284 11.0146 2.9917 11.6853 2.9917 12.5144V20.0004H23.0083V12.5144C23.0083 11.6853 23.6772 11.0146 24.5042 11.0146C25.3311 11.0146 26 11.6853 26 12.5144V21.5002C26 22.3293 25.3311 22.9999 24.5042 22.9999Z" fill="white"/>
</g>
<defs>
<clipPath id="clip0_121_188">
<rect width="26" height="23" fill="white"/>
</clipPath>
</defs>
</svg>
