<svg width="390" height="425" viewBox="0 0 390 425" fill="none" xmlns="http://www.w3.org/2000/svg">
<g clip-path="url(#clip0_60_189)">
<path d="M427.583 211.413C413.237 205.147 357.954 182.105 326.557 194.367C324.527 195.176 322.327 193.592 322.564 191.403C323.072 185.811 323.613 180.117 326.861 171.19C331.09 159.568 339.988 147.878 349.529 134.706C363.232 115.841 371.386 100.749 367.089 96.7404C360.796 90.845 315.121 100.985 298.069 108.834C296.58 109.508 294.889 108.868 294.212 107.386C289.577 97.3805 277.228 78.9196 245.323 76.4604C226.782 75.0455 212.301 79.1217 201.881 86.3646C199.918 87.7121 197.246 86.4656 197.212 84.1075C197.11 80.0313 196.603 75.4835 194.81 71.003C194.708 70.6998 194.64 70.3629 194.607 70.0597L193.49 29.9377C193.422 27.7817 191.122 26.4005 189.193 27.3774L160.029 41.8968C159.352 42.2337 158.608 42.3011 157.864 42.0653C144.466 38.0564 128.496 39.1681 110.869 49.3081C96.9636 57.2921 87.0504 68.2743 84.3099 81.7157C84.1407 82.5579 83.6671 83.2653 82.9566 83.7033C78.0507 86.7688 73.5509 89.8681 69.2202 93.0347C63.5701 82.3221 56.8711 69.6555 56.7357 69.4534C53.9276 65.3772 47.7361 69.4534 50.4089 73.6306L65.2279 96.0329C63.0287 97.751 60.8972 99.4691 58.8672 101.221C54.0629 95.4603 48.9879 89.4639 48.9879 89.4639C45.8414 85.893 40.6311 90.7777 44.0144 94.1464L55.1794 104.556C52.7096 106.847 50.4089 109.171 48.2436 111.529C34.3381 101.019 15.5944 86.8699 15.5267 86.8362C11.5682 84.3433 7.74508 90.1376 11.6021 92.7316L45.2324 114.965C32.9509 129.451 25.4061 146.025 22.4964 167.047C16.5417 209.83 27.9774 263.663 35.6576 296.542C48.2097 350.105 67.6639 384.029 76.7312 395.348C78.0507 396.999 79.1672 398.178 79.9792 398.852L82.1446 396.258C81.8401 396.022 81.5356 395.719 81.1634 395.348C73.7877 387.836 52.4727 353.508 38.9732 295.767C27.6052 247.156 17.3876 168.731 52.1344 119.513L61.0326 125.375C62.8257 126.588 64.6866 123.926 62.9949 122.646C62.9611 122.613 59.5101 120.019 54.5366 116.279C56.3636 113.887 58.2921 111.63 60.3559 109.407L65.0587 113.82C66.5136 115.269 68.8819 113.079 67.4947 111.529C67.4947 111.529 65.7016 109.373 63.2317 106.409C64.9911 104.657 66.8181 102.973 68.7466 101.356L74.0922 109.441C75.2426 111.192 77.9831 109.575 77.0019 107.723C76.9342 107.622 74.9042 103.781 72.1637 98.5932C75.0734 96.4035 78.0846 94.2812 81.3326 92.3273C83.3626 91.1145 85.9339 92.5631 85.9339 94.9213C85.9001 98.8627 86.2046 102.703 86.9151 106.375C90.9412 127.598 101.091 139.793 111.918 144.543C122.745 149.293 129.139 150.607 142.875 149.596C156.578 148.586 165.611 143.128 172.919 138.378C176.438 136.054 179.618 136.728 180.6 140.804C183.645 153.875 194.031 165.463 208.85 175.637C217.782 181.768 235.173 186.889 250.499 184.8C265.826 182.711 277.431 177.625 287.411 168.057C299.422 156.57 301.52 138.749 299.558 123.994C298.746 117.728 303.313 111.125 309.437 109.474C332.241 103.276 348.311 102.501 351.356 105.364C353.691 107.52 346.62 119.918 339.244 130.058C328.993 144.206 319.147 158.827 315.899 180.151C314.884 186.922 314.14 195.748 312.956 205.349L276.788 198.275C274.656 197.871 274.013 201.037 276.043 201.543C276.043 201.543 294.922 206.293 312.211 210.605C311.568 215.085 310.79 219.599 309.809 224.147L259.634 198.444C257.672 197.433 256.149 200.33 258.01 201.408C258.044 201.408 285.381 217.039 308.422 230.177C306.798 236.544 304.666 242.709 301.892 248.402L257.097 211.683C255.439 210.302 253.307 212.828 254.864 214.209C254.864 214.209 277.904 235.433 298.576 254.5C296.411 258.003 293.941 261.237 291.032 264.101C286.735 268.345 282.303 272.152 277.904 275.555C274.995 277.812 278.006 282.258 281.186 280.406C289.644 275.521 298.035 269.558 305.242 262.517C305.58 262.181 305.884 261.844 306.223 261.507C314.106 268.783 325.88 279.631 325.88 279.631C327.775 281.383 330.752 281.18 332.376 279.193C333.966 277.306 333.695 274.477 331.767 272.927L311.027 255.915C315.425 250.087 318.47 243.787 320.331 237.016C331.496 243.383 339.684 248.032 339.684 248.032C344.218 250.255 347.601 243.619 343.203 241.261L321.786 230.278C322.7 224.888 323.004 219.195 322.767 213.266C345.097 218.858 367.427 224.45 367.427 224.45C369.762 225.023 372.096 223.541 372.57 221.216C373.01 218.959 371.521 216.77 369.254 216.332L322.429 207.202C322.429 206.966 322.429 206.764 322.429 206.562C322.327 205.451 322.835 204.339 323.782 203.766C352.811 186.653 415.369 210.268 427.617 215.153C428.902 215.692 429.647 215.995 429.714 216.028L431 212.896C430.662 212.761 429.477 212.222 427.617 211.413H427.583ZM164.63 43.3791L177.284 37.0795C183.543 33.9465 189.971 37.9217 189.971 43.9855V63.2548C189.971 63.7265 189.362 63.9286 189.058 63.5243C182.9 55.0687 175.085 48.2638 164.63 43.7497C164.461 43.6823 164.461 43.4465 164.63 43.3791V43.3791ZM179.821 124.937C179.686 125.139 167.1 142.994 136.921 142.994C132.996 142.994 128.767 142.69 124.233 142.017C103.663 138.917 93.1742 121.265 90.2307 105.735C86.7797 87.4763 92.3284 63.8275 112.561 52.2053C147.308 32.2622 175.22 49.3755 188.55 70.0934C189.058 70.9019 189.532 71.7104 189.971 72.4853L190.445 73.4959C195.419 83.3327 193.862 91.5862 193.118 94.2812C193.016 94.6518 192.847 94.9886 192.61 95.2918C188.449 100.042 185.404 105.23 183.475 110.249C181.581 115.336 180.363 120.221 179.821 124.937V124.937ZM278.243 165.227C262.713 180.117 230.571 186.518 209.29 171.931C184.964 155.256 177.555 135.481 186.656 111.428C192.847 95.056 211.828 76.7973 244.951 79.3239C278.073 81.8504 286.498 103.074 290.084 112.169L290.659 113.584C297.663 130.63 292.689 151.382 278.243 165.227V165.227Z" fill="#2C2F32"/>
<path d="M170.754 109.811C169.603 111.294 168.419 112.675 167.167 113.955C166.152 108.262 161.145 103.916 155.123 103.916C148.356 103.916 142.875 109.407 142.875 116.145C142.875 119.648 144.364 122.815 146.766 125.038C142.571 126.015 137.969 126.487 133.03 126.487C126.804 126.487 120.241 124.836 113.914 120.322C105.963 114.662 101.768 107.352 101.362 98.627C100.753 85.7246 108.94 72.5191 116.79 65.7478C118.414 64.3329 120.173 63.0191 122.034 61.8737C122.135 62.6149 122.338 63.3897 122.643 64.1645C123.928 67.2975 126.635 69.184 128.733 68.3755C130.797 67.5333 131.439 64.2993 130.154 61.1326C129.748 60.0883 129.173 59.2124 128.496 58.505C141.928 52.8118 158.134 53.7887 169.062 65.8826C183.441 81.7495 179.652 98.2901 170.754 109.811V109.811Z" fill="#2C2F32"/>
<path d="M264.743 155.02C264.573 155.121 264.404 155.256 264.235 155.357C264.303 154.952 264.303 154.548 264.303 154.144C264.303 145.015 256.859 137.603 247.691 137.603C238.522 137.603 231.045 145.015 231.045 154.144C231.045 157.445 231.992 160.477 233.684 163.071C230.3 162.768 226.883 162.061 223.567 160.915C211.59 156.805 202.049 144.509 200.831 139.692C197.651 127.025 201.474 110.384 209.966 101.288C212.91 98.1214 216.699 95.7295 220.895 94.0451C220.996 95.4937 221.368 97.077 221.977 98.593C224.143 103.916 228.71 107.082 232.195 105.701C235.68 104.286 236.762 98.8288 234.597 93.5061C234.225 92.5966 233.785 91.7881 233.345 91.0133C237.439 90.5753 241.533 90.6427 245.255 91.0806C256.183 92.3945 269.851 100.345 275.163 109.845C286.227 129.687 275.603 147.508 264.743 155.02V155.02Z" fill="#2C2F32"/>
<path d="M231.383 210.74C222.688 214.479 211.489 217.949 199.884 217.949C192.509 217.949 184.964 216.568 177.757 212.963C164.089 206.529 150.555 188.775 151.807 172.875C144.736 177.018 136.447 178.669 129.037 180.151C110.97 183.183 95.7116 180.016 84.8511 171.056C74.3966 162.364 68.7126 148.62 68.4419 131.304C68.4419 130.866 68.7802 130.496 69.2539 130.462C69.7276 130.428 70.0997 130.799 70.1336 131.237C71.0471 143.095 73.4831 151.854 77.7799 158.827C87.9637 175.974 116.215 185.44 148.525 169.169C151.638 167.72 153.33 165.767 155.089 163.038C156.815 160.377 159.555 152.393 159.589 152.291C159.792 151.685 160.266 151.18 160.908 150.91C161.517 150.674 162.228 150.708 162.837 151.011L172.987 156.401C173.765 156.839 174.205 157.614 174.171 158.49C174.137 159.366 173.63 160.141 172.818 160.478C172.716 160.545 172.615 160.545 172.479 160.579C172.378 160.579 161.348 160.814 157.83 168.259C154.108 176.176 158.033 185.508 161.281 191.841C167.269 202.655 185.945 226 230.74 209.19C231.18 209.022 231.654 209.224 231.823 209.662C231.992 210.066 231.823 210.571 231.383 210.74V210.74Z" fill="#2C2F32"/>
<path d="M247.251 293.712C215.515 313.453 174.306 315.34 141.555 296.845C139.695 295.936 140.913 293.005 142.909 293.746C176.674 308.569 212.808 307.39 245.627 290.748C247.521 289.771 249.145 292.668 247.251 293.712V293.712Z" fill="#2C2F32"/>
<path d="M323.748 203.766C322.801 204.338 322.293 205.45 322.395 206.562C322.395 206.764 322.395 206.966 322.395 207.202L369.22 216.331C371.487 216.769 372.976 218.959 372.536 221.216C372.062 223.54 369.728 225.023 367.393 224.45C367.393 224.45 345.063 218.858 322.733 213.266C322.97 219.195 322.666 224.888 321.752 230.278L343.169 241.26C347.567 243.618 344.184 250.255 339.65 248.031C339.65 248.031 331.462 243.382 320.297 237.015C318.436 243.787 315.391 250.086 310.993 255.914L331.733 272.927C333.661 274.476 333.932 277.306 332.342 279.192C330.718 281.18 327.741 281.382 325.846 279.63C325.846 279.63 314.072 268.783 306.189 261.506C305.85 261.843 305.546 262.18 305.208 262.517C298.001 269.558 289.61 275.521 281.152 280.405C277.972 282.258 274.961 277.811 277.87 275.554C282.269 272.152 286.701 268.345 290.998 264.1C293.907 261.237 296.377 258.003 298.542 254.499C277.87 235.432 254.83 214.209 254.83 214.209C253.273 212.828 255.405 210.301 257.063 211.682L301.858 248.402C304.632 242.709 306.764 236.544 308.388 230.177C285.347 217.039 258.01 201.408 257.976 201.408C256.115 200.33 257.638 197.432 259.6 198.443L309.775 224.147C310.756 219.599 311.534 215.085 312.177 210.604C294.888 206.292 276.009 201.542 276.009 201.542C273.979 201.037 274.622 197.87 276.754 198.275L312.922 205.349C314.106 195.748 314.85 186.922 315.865 180.151C319.113 158.826 328.959 144.206 339.21 130.057C346.586 119.917 353.657 107.52 351.322 105.364C348.277 102.501 332.207 103.275 309.403 109.474C303.279 111.125 298.712 117.727 299.524 123.993C301.486 138.749 299.388 156.569 287.377 168.057C277.397 177.624 265.792 182.711 250.465 184.8C235.139 186.888 217.748 181.768 208.816 175.637C193.997 165.463 183.611 153.874 180.566 140.803C179.584 136.727 176.404 136.054 172.885 138.378C165.577 143.128 156.544 148.585 142.841 149.596C129.105 150.607 122.711 149.293 111.884 144.543C101.057 139.793 90.9072 127.598 86.8811 106.375C86.1706 102.703 85.8661 98.8623 85.8999 94.9208C85.8999 92.5627 83.3286 91.1141 81.2986 92.3269C78.0506 94.2808 75.0394 96.4031 72.1298 98.5928C74.8703 103.781 76.9003 107.621 76.9679 107.722C77.9491 109.575 75.2086 111.192 74.0583 109.44L68.7126 101.355C66.7841 102.972 64.9571 104.657 63.1978 106.408C65.6676 109.373 67.4607 111.529 67.4607 111.529C68.8479 113.078 66.4796 115.268 65.0248 113.82L60.3219 109.407C58.2581 111.63 56.3296 113.887 54.5026 116.279C59.4761 120.018 62.9271 122.612 62.9609 122.646C64.6526 123.926 62.7918 126.587 60.9986 125.375L52.1004 119.513C17.3536 168.731 27.5713 247.155 38.9393 295.767C52.4388 353.508 73.7538 387.835 81.1294 395.348L118.965 436.717H409.671L427.583 215.152C415.335 210.267 352.777 186.652 323.748 203.766ZM84.8511 171.055C74.3966 162.364 68.7126 148.619 68.4419 131.304C68.4419 130.866 68.7803 130.495 69.2539 130.461C69.7276 130.428 70.0998 130.798 70.1336 131.236C71.0471 143.094 73.4831 151.853 77.7799 158.826C87.9637 175.973 116.215 185.44 148.525 169.168C151.638 167.72 153.33 165.766 155.089 163.037C156.815 160.376 159.555 152.392 159.589 152.291C159.792 151.685 160.266 151.179 160.908 150.91C161.517 150.674 162.228 150.708 162.837 151.011L172.987 156.401C173.765 156.839 174.205 157.614 174.171 158.489C174.137 159.365 173.63 160.14 172.818 160.477C172.716 160.544 172.615 160.544 172.479 160.578C172.378 160.578 161.348 160.814 157.83 168.259C154.108 176.176 158.033 185.507 161.281 191.84C167.269 202.654 185.945 226 230.74 209.189C231.18 209.021 231.654 209.223 231.823 209.661C231.992 210.065 231.823 210.571 231.383 210.739C222.688 214.478 211.489 217.948 199.884 217.948C192.509 217.948 184.964 216.567 177.757 212.962C164.089 206.528 150.555 188.775 151.807 172.874C144.736 177.018 136.447 178.668 129.037 180.151C110.97 183.183 95.7116 180.016 84.8511 171.055ZM247.251 293.712C215.515 313.453 174.306 315.339 141.556 296.845C139.695 295.935 140.913 293.004 142.909 293.746C176.675 308.568 212.809 307.389 245.627 290.747C247.522 289.77 249.146 292.668 247.251 293.712Z" fill="#FFBF73"/>
<path d="M151.807 172.874C144.736 177.018 136.447 178.669 129.037 180.151C110.97 183.183 95.7116 180.016 84.8511 171.055C74.3966 162.364 68.7126 148.619 68.4419 131.304C68.4419 130.866 68.7802 130.495 69.2539 130.462C69.7276 130.428 70.0997 130.798 70.1336 131.236C71.0471 143.094 73.4831 151.853 77.7799 158.827C87.9637 175.974 116.215 185.44 148.525 169.169C151.638 167.72 153.33 165.766 155.089 163.038C156.815 160.376 159.555 152.392 159.589 152.291C159.792 151.685 160.266 151.18 160.908 150.91C161.517 150.674 162.228 150.708 162.837 151.011L172.987 156.401C173.765 156.839 174.205 157.614 174.171 158.49C174.137 159.366 173.63 160.14 172.818 160.477C172.716 160.545 172.615 160.545 172.479 160.578C172.378 160.578 161.348 160.814 157.83 168.259C154.108 176.176 158.033 185.507 161.281 191.841C167.269 202.654 185.945 226 230.74 209.19C231.18 209.021 231.654 209.223 231.823 209.661C231.992 210.066 231.823 210.571 231.383 210.739C222.688 214.479 211.489 217.949 199.884 217.949C192.509 217.949 184.964 216.567 177.757 212.963C164.089 206.528 150.555 188.775 151.807 172.874V172.874Z" stroke="#2C2F32" stroke-miterlimit="10"/>
<path d="M247.251 293.712C215.515 313.453 174.306 315.34 141.555 296.845C139.695 295.935 140.913 293.005 142.909 293.746C176.674 308.568 212.808 307.389 245.627 290.748C247.521 289.771 249.145 292.668 247.251 293.712V293.712Z" stroke="#2C2F32" stroke-miterlimit="10"/>
<path d="M189.97 43.9855V63.2549C189.97 63.7265 189.361 63.9286 189.057 63.5244C182.899 55.0687 175.084 48.2638 164.629 43.7497C164.46 43.6823 164.46 43.4465 164.629 43.3791L177.283 37.0795C183.542 33.9466 189.97 37.9217 189.97 43.9855V43.9855Z" fill="#FFBF73"/>
<path d="M290.659 113.584L290.084 112.169C286.498 103.073 278.073 81.8502 244.95 79.3236C211.828 76.797 192.847 95.0557 186.656 111.428C177.554 135.481 184.964 155.256 209.29 171.931C230.571 186.518 262.713 180.117 278.242 165.227C292.689 151.382 297.663 130.63 290.659 113.584V113.584ZM264.743 155.02C264.574 155.121 264.405 155.256 264.235 155.357C264.303 154.952 264.303 154.548 264.303 154.144C264.303 145.015 256.86 137.603 247.691 137.603C238.522 137.603 231.045 145.015 231.045 154.144C231.045 157.445 231.992 160.477 233.684 163.071C230.301 162.768 226.883 162.061 223.568 160.915C211.591 156.805 202.05 144.509 200.832 139.692C197.651 127.025 201.475 110.384 209.967 101.288C212.91 98.1213 216.7 95.7295 220.895 94.0451C220.996 95.4937 221.369 97.077 221.978 98.5929C224.143 103.916 228.71 107.082 232.195 105.701C235.68 104.286 236.763 98.8288 234.597 93.5061C234.225 92.5965 233.785 91.788 233.346 91.0132C237.439 90.5753 241.533 90.6427 245.255 91.0806C256.183 92.3944 269.852 100.345 275.164 109.845C286.227 129.687 275.603 147.507 264.743 155.02V155.02Z" fill="white"/>
<path d="M190.445 73.4953L189.971 72.4847C189.531 71.7099 189.058 70.9014 188.55 70.0929C175.22 49.375 147.307 32.2616 112.561 52.2047C92.3282 63.827 86.7796 87.4757 90.2306 105.734C93.1741 121.264 103.662 138.917 124.233 142.016C128.767 142.69 132.996 142.993 136.921 142.993C167.1 142.993 179.686 125.139 179.821 124.936C180.363 120.22 181.581 115.335 183.475 110.249C185.404 105.229 188.449 100.041 192.61 95.2913C192.847 94.9881 193.016 94.6512 193.118 94.2807C193.862 91.5856 195.418 83.3322 190.445 73.4953V73.4953ZM170.754 109.811C169.604 111.293 168.419 112.674 167.168 113.954C166.153 108.261 161.145 103.915 155.123 103.915C148.356 103.915 142.875 109.406 142.875 116.144C142.875 119.647 144.364 122.814 146.766 125.038C142.571 126.014 137.969 126.486 133.03 126.486C126.804 126.486 120.241 124.835 113.914 120.321C105.963 114.662 101.768 107.351 101.362 98.6264C100.753 85.724 108.94 72.5184 116.79 65.7472C118.414 64.3323 120.173 63.0185 122.034 61.8731C122.135 62.6142 122.338 63.389 122.643 64.1639C123.929 67.2968 126.635 69.1833 128.733 68.3748C130.797 67.5326 131.44 64.2986 130.154 61.132C129.748 60.0876 129.173 59.2118 128.496 58.5043C141.928 52.8111 158.134 53.7881 169.062 65.8819C183.441 81.7488 179.652 98.2895 170.754 109.811V109.811Z" fill="white"/>
</g>
<defs>
<clipPath id="clip0_60_189">
<rect width="391" height="425" fill="white" transform="translate(-1)"/>
</clipPath>
</defs>
</svg>
