<svg width="391" height="425" viewBox="0 0 391 425" fill="none" xmlns="http://www.w3.org/2000/svg">
<g clip-path="url(#clip0_74_262)">
<path d="M428.583 211.413C414.237 205.147 358.954 182.105 327.557 194.367C325.527 195.176 323.327 193.592 323.564 191.403C324.072 185.811 324.613 180.117 327.861 171.19C332.09 159.568 340.988 147.878 350.529 134.706C364.232 115.841 372.386 100.749 368.089 96.7404C361.796 90.845 316.121 100.985 299.069 108.834C297.58 109.508 295.889 108.868 295.212 107.386C290.577 97.3805 278.228 78.9196 246.323 76.4604C227.782 75.0455 213.301 79.1217 202.881 86.3646C200.918 87.7121 198.246 86.4656 198.212 84.1075C198.11 80.0313 197.603 75.4835 195.81 71.003C195.708 70.6998 195.64 70.3629 195.607 70.0597L194.49 29.9377C194.422 27.7817 192.122 26.4005 190.193 27.3774L161.029 41.8968C160.352 42.2337 159.608 42.3011 158.864 42.0653C145.466 38.0564 129.496 39.1681 111.869 49.3081C97.9636 57.2921 88.0504 68.2743 85.3099 81.7157C85.1407 82.5579 84.6671 83.2653 83.9566 83.7033C79.0507 86.7688 74.5509 89.8681 70.2202 93.0347C64.5701 82.3221 57.8711 69.6555 57.7357 69.4534C54.9276 65.3772 48.7361 69.4534 51.4089 73.6306L66.2279 96.0329C64.0287 97.751 61.8972 99.4691 59.8672 101.221C55.0629 95.4603 49.9879 89.4639 49.9879 89.4639C46.8414 85.893 41.6311 90.7777 45.0144 94.1464L56.1794 104.556C53.7096 106.847 51.4089 109.171 49.2436 111.529C35.3381 101.019 16.5944 86.8699 16.5267 86.8362C12.5682 84.3433 8.74508 90.1376 12.6021 92.7316L46.2324 114.965C33.9509 129.451 26.4061 146.025 23.4964 167.047C17.5417 209.83 28.9774 263.663 36.6576 296.542C49.2097 350.105 68.6639 384.029 77.7312 395.348C79.0507 396.999 80.1672 398.178 80.9792 398.852L83.1446 396.258C82.8401 396.022 82.5356 395.719 82.1634 395.348C74.7877 387.836 53.4727 353.508 39.9732 295.767C28.6052 247.156 18.3876 168.731 53.1344 119.513L62.0326 125.375C63.8257 126.588 65.6866 123.926 63.9949 122.646C63.9611 122.613 60.5101 120.019 55.5366 116.279C57.3636 113.887 59.2921 111.63 61.3559 109.407L66.0587 113.82C67.5136 115.269 69.8819 113.079 68.4947 111.529C68.4947 111.529 66.7016 109.373 64.2317 106.409C65.9911 104.657 67.8181 102.973 69.7466 101.356L75.0922 109.441C76.2426 111.192 78.9831 109.575 78.0019 107.723C77.9342 107.622 75.9042 103.781 73.1637 98.5932C76.0734 96.4035 79.0846 94.2812 82.3326 92.3273C84.3626 91.1145 86.9339 92.5631 86.9339 94.9213C86.9001 98.8627 87.2046 102.703 87.9151 106.375C91.9412 127.598 102.091 139.793 112.918 144.543C123.745 149.293 130.139 150.607 143.875 149.596C157.578 148.586 166.611 143.128 173.919 138.378C177.438 136.054 180.618 136.728 181.6 140.804C184.645 153.875 195.031 165.463 209.85 175.637C218.782 181.768 236.173 186.889 251.499 184.8C266.826 182.711 278.431 177.625 288.411 168.057C300.422 156.57 302.52 138.749 300.558 123.994C299.746 117.728 304.313 111.125 310.437 109.474C333.241 103.276 349.311 102.501 352.356 105.364C354.691 107.52 347.62 119.918 340.244 130.058C329.993 144.206 320.147 158.827 316.899 180.151C315.884 186.922 315.14 195.748 313.956 205.349L277.788 198.275C275.656 197.871 275.013 201.037 277.043 201.543C277.043 201.543 295.922 206.293 313.211 210.605C312.568 215.085 311.79 219.599 310.809 224.147L260.634 198.444C258.672 197.433 257.149 200.33 259.01 201.408C259.044 201.408 286.381 217.039 309.422 230.177C307.798 236.544 305.666 242.709 302.892 248.402L258.097 211.683C256.439 210.302 254.307 212.828 255.864 214.209C255.864 214.209 278.904 235.433 299.576 254.5C297.411 258.003 294.941 261.237 292.032 264.101C287.735 268.345 283.303 272.152 278.904 275.555C275.995 277.812 279.006 282.258 282.186 280.406C290.644 275.521 299.035 269.558 306.242 262.517C306.58 262.181 306.884 261.844 307.223 261.507C315.106 268.783 326.88 279.631 326.88 279.631C328.775 281.383 331.752 281.18 333.376 279.193C334.966 277.306 334.695 274.477 332.767 272.927L312.027 255.915C316.425 250.087 319.47 243.787 321.331 237.016C332.496 243.383 340.684 248.032 340.684 248.032C345.218 250.255 348.601 243.619 344.203 241.261L322.786 230.278C323.7 224.888 324.004 219.195 323.767 213.266C346.097 218.858 368.427 224.45 368.427 224.45C370.762 225.023 373.096 223.541 373.57 221.216C374.01 218.959 372.521 216.77 370.254 216.332L323.429 207.202C323.429 206.966 323.429 206.764 323.429 206.562C323.327 205.451 323.835 204.339 324.782 203.766C353.811 186.653 416.369 210.268 428.617 215.153C429.902 215.692 430.647 215.995 430.714 216.028L432 212.896C431.662 212.761 430.477 212.222 428.617 211.413H428.583ZM165.63 43.3791L178.284 37.0795C184.543 33.9465 190.971 37.9217 190.971 43.9855V63.2548C190.971 63.7265 190.362 63.9286 190.058 63.5243C183.9 55.0687 176.085 48.2638 165.63 43.7497C165.461 43.6823 165.461 43.4465 165.63 43.3791V43.3791ZM180.821 124.937C180.686 125.139 168.1 142.994 137.921 142.994C133.996 142.994 129.767 142.69 125.233 142.017C104.663 138.917 94.1742 121.265 91.2307 105.735C87.7797 87.4763 93.3284 63.8275 113.561 52.2053C148.308 32.2622 176.22 49.3755 189.55 70.0934C190.058 70.9019 190.532 71.7104 190.971 72.4853L191.445 73.4959C196.419 83.3327 194.862 91.5862 194.118 94.2812C194.016 94.6518 193.847 94.9886 193.61 95.2918C189.449 100.042 186.404 105.23 184.475 110.249C182.581 115.336 181.363 120.221 180.821 124.937V124.937ZM279.243 165.227C263.713 180.117 231.571 186.518 210.29 171.931C185.964 155.256 178.555 135.481 187.656 111.428C193.847 95.056 212.828 76.7973 245.951 79.3239C279.073 81.8504 287.498 103.074 291.084 112.169L291.659 113.584C298.663 130.63 293.689 151.382 279.243 165.227V165.227Z" fill="#2C2F32"/>
<path d="M171.754 109.811C170.603 111.294 169.419 112.675 168.167 113.955C167.152 108.262 162.145 103.916 156.123 103.916C149.356 103.916 143.875 109.407 143.875 116.145C143.875 119.648 145.364 122.815 147.766 125.038C143.571 126.015 138.969 126.487 134.03 126.487C127.804 126.487 121.241 124.836 114.914 120.322C106.963 114.662 102.768 107.352 102.362 98.627C101.753 85.7246 109.94 72.5191 117.79 65.7478C119.414 64.3329 121.173 63.0191 123.034 61.8737C123.135 62.6149 123.338 63.3897 123.643 64.1645C124.928 67.2975 127.635 69.184 129.733 68.3755C131.797 67.5333 132.439 64.2993 131.154 61.1326C130.748 60.0883 130.173 59.2124 129.496 58.505C142.928 52.8118 159.134 53.7887 170.062 65.8826C184.441 81.7495 180.652 98.2901 171.754 109.811V109.811Z" fill="#2C2F32"/>
<path d="M265.743 155.02C265.573 155.121 265.404 155.256 265.235 155.357C265.303 154.952 265.303 154.548 265.303 154.144C265.303 145.015 257.859 137.603 248.691 137.603C239.522 137.603 232.045 145.015 232.045 154.144C232.045 157.445 232.992 160.477 234.684 163.071C231.3 162.768 227.883 162.061 224.567 160.915C212.59 156.805 203.049 144.509 201.831 139.692C198.651 127.025 202.474 110.384 210.966 101.288C213.91 98.1214 217.699 95.7295 221.895 94.0451C221.996 95.4937 222.368 97.077 222.977 98.593C225.143 103.916 229.71 107.082 233.195 105.701C236.68 104.286 237.762 98.8288 235.597 93.5061C235.225 92.5966 234.785 91.7881 234.345 91.0133C238.439 90.5753 242.533 90.6427 246.255 91.0806C257.183 92.3945 270.851 100.345 276.163 109.845C287.227 129.687 276.603 147.508 265.743 155.02V155.02Z" fill="#2C2F32"/>
<path d="M232.383 210.74C223.688 214.479 212.489 217.949 200.884 217.949C193.509 217.949 185.964 216.568 178.757 212.963C165.089 206.529 151.555 188.775 152.807 172.875C145.736 177.018 137.447 178.669 130.037 180.151C111.97 183.183 96.7116 180.016 85.8511 171.056C75.3966 162.364 69.7126 148.62 69.4419 131.304C69.4419 130.866 69.7802 130.496 70.2539 130.462C70.7276 130.428 71.0997 130.799 71.1336 131.237C72.0471 143.095 74.4831 151.854 78.7799 158.827C88.9637 175.974 117.215 185.44 149.525 169.169C152.638 167.72 154.33 165.767 156.089 163.038C157.815 160.377 160.555 152.393 160.589 152.291C160.792 151.685 161.266 151.18 161.908 150.91C162.517 150.674 163.228 150.708 163.837 151.011L173.987 156.401C174.765 156.839 175.205 157.614 175.171 158.49C175.137 159.366 174.63 160.141 173.818 160.478C173.716 160.545 173.615 160.545 173.479 160.579C173.378 160.579 162.348 160.814 158.83 168.259C155.108 176.176 159.033 185.508 162.281 191.841C168.269 202.655 186.945 226 231.74 209.19C232.18 209.022 232.654 209.224 232.823 209.662C232.992 210.066 232.823 210.571 232.383 210.74V210.74Z" fill="#2C2F32"/>
<path d="M248.251 293.712C216.515 313.453 175.306 315.34 142.555 296.845C140.695 295.936 141.913 293.005 143.909 293.746C177.674 308.569 213.808 307.39 246.627 290.748C248.521 289.771 250.145 292.668 248.251 293.712V293.712Z" fill="#2C2F32"/>
</g>
<defs>
<clipPath id="clip0_74_262">
<rect width="391" height="425" fill="white"/>
</clipPath>
</defs>
</svg>
